<mxfile host="app.diagrams.net" modified="2023-06-27T09:57:10.135Z" agent="Mozilla/5.0 (Windows NT 10.0; Win64; x64; rv:109.0) Gecko/20100101 Firefox/114.0" etag="LOlCwrFiZQsgLw_YbNP9" version="21.5.0" type="github">
  <diagram name="Seite-1" id="c1dzLFRzeHo-qwZXP59P">
    <mxGraphModel dx="1562" dy="785" grid="1" gridSize="10" guides="1" tooltips="1" connect="1" arrows="1" fold="1" page="1" pageScale="1" pageWidth="827" pageHeight="1169" math="0" shadow="0">
      <root>
        <mxCell id="0" />
        <mxCell id="1" parent="0" />
        <mxCell id="nRxhFtLmPuZJ_PnHPkGs-1" value="" style="rounded=0;whiteSpace=wrap;html=1;" parent="1" vertex="1">
          <mxGeometry x="354" y="70" width="120" height="60" as="geometry" />
        </mxCell>
      </root>
    </mxGraphModel>
  </diagram>
</mxfile>
